inDegrees=no
num_controls=7
num_derivatives=13
num_iterations=167
num_multipliers=7
num_parameters=0
num_slacks=7
num_states=26
objective=0.546512
objective_accelerations=0.057367
objective_balance=0.004885
objective_effort=0.045687
objective_height=0.428733
objective_ligament=0.009840
solver_duration=1830.113128
status=Solve_Succeeded
success=true
DataType=double
version=3
OpenSimVersion=4.5
endheader
time	/jointset/ground_pelvis/pelvis_tilt/value	/jointset/ground_pelvis/pelvis_tx/value	/jointset/ground_pelvis/pelvis_ty/value	/jointset/hip_r/hip_flexion_r/value	/jointset/hip_r/hip_adduction_r/value	/jointset/hip_r/hip_rotation_r/value	/jointset/back/lumbar_extension/value	/jointset/patellofemoral_r/patellar_flexion_r/value	/jointset/knee_r/knee_flexion_r/value	/jointset/knee_r/knee_adduction_r/value	/jointset/knee_r/knee_rotation_r/value	/jointset/ankle_r/ankle_angle_r/value	/jointset/subtalar_r/subtalar_angle_r/value	/jointset/ground_pelvis/pelvis_tilt/speed	/jointset/ground_pelvis/pelvis_tx/speed	/jointset/ground_pelvis/pelvis_ty/speed	/jointset/hip_r/hip_flexion_r/speed	/jointset/hip_r/hip_adduction_r/speed	/jointset/hip_r/hip_rotation_r/speed	/jointset/back/lumbar_extension/speed	/jointset/patellofemoral_r/patellar_flexion_r/speed	/jointset/knee_r/knee_flexion_r/speed	/jointset/knee_r/knee_adduction_r/speed	/jointset/knee_r/knee_rotation_r/speed	/jointset/ankle_r/ankle_angle_r/speed	/jointset/subtalar_r/subtalar_angle_r/speed	/forceset/tau_hip_flexion_r	/forceset/tau_hip_adduction_r	/forceset/tau_hip_rotation_r	/forceset/tau_knee_flexion_r	/forceset/tau_ankle_angle_r	/forceset/tau_subtalar_angle_r	/forceset/tau_lumbar_extension	lambda_cid13_p0	lambda_cid14_p0	lambda_cid14_p1	lambda_cid14_p2	lambda_cid14_p3	lambda_cid14_p4	lambda_cid14_p5	/jointset/ground_pelvis/pelvis_tilt/accel	/jointset/ground_pelvis/pelvis_tx/accel	/jointset/ground_pelvis/pelvis_ty/accel	/jointset/hip_r/hip_flexion_r/accel	/jointset/hip_r/hip_adduction_r/accel	/jointset/hip_r/hip_rotation_r/accel	/jointset/back/lumbar_extension/accel	/jointset/patellofemoral_r/patellar_flexion_r/accel	/jointset/knee_r/knee_flexion_r/accel	/jointset/knee_r/knee_adduction_r/accel	/jointset/knee_r/knee_rotation_r/accel	/jointset/ankle_r/ankle_angle_r/accel	/jointset/subtalar_r/subtalar_angle_r/accel	gamma_cid13_p0	gamma_cid14_p0	gamma_cid14_p1	gamma_cid14_p2	gamma_cid14_p3	gamma_cid14_p4	gamma_cid14_p5
1	-0.3265303386375353	-0.00923300589514865	0.6367822970918592	1.542906299044167	-0.2462409462952012	0.05461842567871762	-0.436328541856199	1.454516852893625	1.454516852893594	0.0303525875739345	0.1745296641686569	0.4363269744276058	0.08390845092737512	-0.0018809778506984	0.002840122980874878	0.01480508892338063	-0.03757950266062497	-0.0005758963026601736	-0.01294700516500692	-0.0002179196785249799	-0.04443000676982902	-0.04443000676982839	-0.0005928010164068586	3.334923285213126e-05	-0.006792498064580906	-0.003102925420503272	-0.3032448343589341	0.01456353934732826	0.01839532351115783	-0.5139393465120297	0.003038202273501244	-0.002095858949029759	0.3136174407623605	-0.04332002496124809	-49.1766779227477	-10.53553737513356	3.298796207261349	17.79566682342134	-811.1081525484034	57.99033162700521	1.3416295858282	0.07151114424296784	1.919329714446565	-5.819105498926165	-0.07588642681971486	-1.3762214010661	-0.01995992977649434	-5.480856608079986	-5.480856608080075	0.1663940331029443	0.01112864900711823	-1.255142754802853	-0.5445343252445604	1.203879757726628e-09	-1.642254326618799e-09	1.237619905548956e-08	7.707576740388539e-09	3.071143215008616e-09	-4.979405213560471e-09	1.634955399008012e-08
1.01	-0.3264826996320733	-0.009201056909345433	0.6370262575447625	1.542240224417815	-0.2462503031929562	0.05442079144793074	-0.4363307645620642	1.453798382385343	1.453798382385344	0.03035536698792721	0.1745300156125641	0.4361961571535693	0.08385047316202097	0.01141166970445268	0.00355006116453856	0.03399394786976265	-0.09565571386132163	-0.001292454582343957	-0.02658277601589835	-0.000206195962452855	-0.09930003418855635	-0.09930003418856592	0.001151559739407332	3.456129230734509e-05	-0.01939078396105719	-0.00849310208150968	-0.3036095238178807	0.01470478553941047	0.01840496666312483	-0.513608153905363	0.002487966661701695	-0.00204922188223539	0.3139547829255004	-0.04334040903074414	-49.36841684355362	-10.54584533150805	3.297001788213061	17.94679887341827	-811.3805473946904	57.95354649492265	1.323516359881605	0.07079382192072456	1.919703960685568	-5.804922436498414	-0.06908363495641598	-1.357695937730886	0.01480235183705305	-5.495467119229088	-5.495467119230579	0.1788904892659332	-0.00573446823865553	-1.265147054118899	-0.53632426931275	2.066907886789769e-09	-2.303405603582914e-09	2.791912117242311e-08	1.444876278855218e-08	3.093689396069259e-09	-9.731636774478268e-09	3.51722939492911e-08
1.02	-0.326302047347155	-0.009161996808407125	0.6374623145823197	1.540992778978284	-0.2462667342947919	0.05408671130651287	-0.4363322572648236	1.452530133340783	1.452530133340814	0.03037567668796824	0.1745303087865338	0.4359387619111575	0.0837385806434997	0.02472167804052574	0.004262346007893326	0.05322440585421261	-0.1538536652962993	-0.001990737118576471	-0.04023618729199855	-7.191906485937323e-05	-0.1543857140256833	-0.1543857140257027	0.002913256193032891	2.169524562745393e-05	-0.03210809173948897	-0.01388587605387882	-0.303974213276823	0.01484603173149558	0.01841460981506988	-0.5132769612986958	0.00193773104990308	-0.002002584815435241	0.3142921250886448	-0.04336833112164033	-49.56924857864479	-10.55558919869597	3.292654631806496	18.12188570850992	-811.797633711058	57.91946524590649	1.345101742012595	0.07198047618118213	1.927649522060153	-5.843453545782376	-0.07223127812945766	-1.379749486107853	0.004550706527880536	-5.523987091759916	-5.523987091759926	0.1698611726652161	0.008313027780088992	-1.278947131193956	-0.5450537875171028	2.202322510546368e-09	-2.778640925877485e-09	4.137053880799526e-08	2.049248887414072e-08	2.546667157112692e-09	-1.156129942589313e-08	4.74423241939607e-08
1.03	-0.3259888055246135	-0.009115644810962227	0.6380907289792542	1.539163417741377	-0.246290049054002	0.05361609068154701	-0.436330198265281	1.450710203912499	1.450710203912536	0.03041369399498357	0.1745304231483558	0.4355537993644809	0.0835728472203411	0.03786840030313811	0.005024208613165168	0.07244981257640318	-0.2119704138366326	-0.002669113292047796	-0.0538822431552736	0.0006656799023117015	-0.209611087795077	-0.2096110877950861	0.004695182255822002	2.254598170504488e-06	-0.04488463740914995	-0.01925271276312108	-0.3048028956835059	0.01499671858671765	0.01843982394604388	-0.5123719355555093	0.001257917291455776	-0.001916033993926443	0.315193109825798	-0.0433944323498614	-49.79447918118236	-10.54317220534927	3.274381821560223	18.08632986037811	-812.1618876747149	57.85839768383907	1.290715083098865	0.08071281791682117	1.918684420723942	-5.788560019150327	-0.06517033029603229	-1.356181889238969	0.1356586297996079	-5.523450410989231	-5.523450410987699	0.1831096417712393	-0.006902256354367408	-1.277043955992927	-0.5312722389229327	2.330312506697794e-09	-3.251979146593795e-09	5.480061456110454e-08	2.652909802133564e-08	1.993832995502885e-09	-1.336113994557835e-08	5.9645490053788e-08
